<svg xmlns="http://www.w3.org/2000/svg" viewBox="0 0 314.38 204.21"><path fill-rule="evenodd" d="M 314.37 12.06 C 314.37 11.92 314.37 11.79 314.36 11.65 C 314.04 7.12 311.42 3.29 307.50 1.66 C 303.55 0.00 299.03 0.80 295.42 3.79 C 285.55 11.98 279.00 37.46 276.65 48.02 C 271.89 69.41 269.58 85.80 283.21 100.11 L 283.21 189.61 C 283.21 197.52 290.30 204.21 298.71 204.21 C 307.19 204.21 314.38 197.61 314.38 189.80 L 314.38 103.08 L 314.38 103.02 L 314.38 102.97 L 314.37 12.06 M 301.93 103.02 L 301.93 103.08 L 301.93 189.80 C 301.93 190.53 300.47 191.96 298.71 191.96 C 297.08 191.96 295.66 190.50 295.66 189.61 L 295.66 97.73 C 295.66 96.29 295.14 94.97 294.29 93.93 C 293.97 93.48 293.62 93.07 293.24 92.69 C 283.61 83.34 283.71 73.55 288.80 50.65 C 291.88 36.86 297.09 21.17 301.92 14.86 L 301.93 102.97 L 301.93 103.02 Z M 40.02 0.69 L 39.10 0.69 C 18.26 0.69 7.15 23.58 3.96 43.30 C 0.00 67.80 11.02 84.24 24.15 90.58 L 24.15 189.91 C 24.15 197.74 31.14 204.11 39.74 204.11 C 48.34 204.11 55.34 197.74 55.34 189.91 L 55.34 90.34 C 72.64 81.92 77.76 60.67 74.96 43.30 C 71.77 23.58 60.67 0.69 40.02 0.69 M 47.14 80.44 C 44.60 81.28 42.89 83.61 42.89 86.25 L 42.89 189.91 C 42.89 190.81 41.52 191.86 39.74 191.86 C 37.97 191.86 36.60 190.81 36.60 189.91 L 36.60 86.44 C 36.60 83.76 34.82 81.39 32.21 80.59 C 18.65 76.47 13.92 59.68 16.25 45.22 C 18.19 33.20 25.20 12.94 39.33 12.94 L 39.80 12.94 C 53.72 12.94 60.72 33.20 62.66 45.22 C 64.96 59.44 60.37 76.09 47.14 80.44 Z M 170.77 18.03 C 123.27 18.03 84.64 56.05 84.64 102.78 C 84.64 149.51 123.27 187.53 170.77 187.53 C 218.27 187.53 256.91 149.51 256.91 102.78 C 256.91 56.05 218.27 18.03 170.77 18.03 M 170.77 175.28 C 130.14 175.28 97.08 142.76 97.08 102.78 C 97.08 62.80 130.14 30.28 170.77 30.28 C 211.41 30.28 244.46 62.80 244.46 102.78 C 244.46 142.76 211.41 175.28 170.77 175.28 Z M 170.77 141.41 C 166.97 141.41 163.87 144.46 163.87 148.20 C 163.87 151.95 166.97 155.00 170.77 155.00 C 174.58 155.00 177.68 151.95 177.68 148.20 C 177.68 144.46 174.58 141.41 170.77 141.41 Z M 170.77 135.66 C 174.20 135.66 177.00 132.92 177.00 129.54 L 177.00 54.87 C 177.00 51.50 174.20 48.75 170.77 48.75 C 167.34 48.75 164.54 51.50 164.54 54.87 L 164.54 129.54 C 164.54 132.92 167.34 135.66 170.77 135.66 Z"/></svg>
